<svg width="260" height="56" viewBox="0 0 260 56" fill="none" xmlns="http://www.w3.org/2000/svg">
  <defs>
    <linearGradient id="slg" x1="0" y1="0" x2="1" y2="1">
      <stop offset="0" stop-color="#E86C13" />
      <stop offset="1" stop-color="#30A66D" />
    </linearGradient>
  </defs>

  <rect x="4" y="4" width="48" height="48" rx="14" fill="url(#slg)" />
  <path
    d="M22.5 35.2c0 2.7 2.1 4.6 6 4.6 3.6 0 5.7-1.6 5.7-4 0-2.2-1.6-3.2-4.6-3.8l-2.6-.6c-2.2-.5-3-.9-3-1.9 0-1.2 1.1-2 3-2 2.1 0 3.2.9 3.4 2.4h3.5c-.3-3.4-2.8-5.6-6.8-5.6-3.9 0-6.5 2.1-6.5 5.3 0 2.7 1.9 4 5 4.7l2.8.6c2 .4 2.8.9 2.8 1.9 0 1.2-1.3 2-3.4 2-2.3 0-3.7-1-3.8-2.6h-3.5Z"
    fill="white"
    opacity="0.95"
  />

  <text x="66" y="36" fill="#1E293B" font-family="Inter, system-ui, -apple-system, Segoe UI, Roboto, sans-serif" font-size="22" font-weight="700">
    SharaLedger
  </text>
</svg>
